HIERARCHY
ROOT Hips
{
	OFFSET 0.000000 0.000000 0.000000
	CHANNELS 6 Xposition Yposition Zposition Xrotation Yrotation Zrotation
	JOINT LeftUpLeg_virtual
	{
		OFFSET 0.000000 0.000000 0.000000
		CHANNELS 3 Xrotation Yrotation Zrotation
		JOINT LeftUpLeg
		{
			OFFSET 10.205400 -3.823500 0.155100
			CHANNELS 3 Xrotation Yrotation Zrotation
			JOINT LeftLeg
			{
				OFFSET 0.708757 -12.982077 0.567790
				CHANNELS 3 Xrotation Yrotation Zrotation
				JOINT LeftFoot
				{
					OFFSET -0.708756 -10.717838 -2.184338
					CHANNELS 3 Xrotation Yrotation Zrotation
					JOINT LeftToeBase
					{
						OFFSET 0.108149 -7.191104 7.560241
						CHANNELS 3 Xrotation Yrotation Zrotation
						JOINT LeftToe_End
						{
							OFFSET 0.070230 0.081724 4.490308
							CHANNELS 3 Xrotation Yrotation Zrotation
							End Site
							{
								OFFSET 0 0 0
							}
						}
					}
				}
			}
		}
	}
	JOINT RightUpLeg_virtual
	{
		OFFSET 0.000000 0.000000 0.000000
		CHANNELS 3 Xrotation Yrotation Zrotation
		JOINT RightUpLeg
		{
			OFFSET -10.205400 -3.823500 0.005500
			CHANNELS 3 Xrotation Yrotation Zrotation
			JOINT RightLeg
			{
				OFFSET -0.708756 -12.982134 0.610632
				CHANNELS 3 Xrotation Yrotation Zrotation
				JOINT RightFoot
				{
					OFFSET 0.708754 -10.717769 -1.945823
					CHANNELS 3 Xrotation Yrotation Zrotation
					JOINT RightToeBase
					{
						OFFSET -0.108140 -7.191069 7.372968
						CHANNELS 3 Xrotation Yrotation Zrotation
						JOINT RightToe_End
						{
							OFFSET -0.070227 0.081735 4.479403
							CHANNELS 3 Xrotation Yrotation Zrotation
							End Site
							{
								OFFSET 0 0 0
							}
						}
					}
				}
			}
		}
	}
	JOINT Spine_virtual
	{
		OFFSET 0.000000 0.000000 0.000000
		CHANNELS 3 Xrotation Yrotation Zrotation
		JOINT Spine
		{
			OFFSET 0.000000 6.876099 0.125700
			CHANNELS 3 Xrotation Yrotation Zrotation
			JOINT Spine1
			{
				OFFSET 0.000000 5.730043 0.104720
				CHANNELS 3 Xrotation Yrotation Zrotation
				JOINT Spine1_split
				{
					OFFSET 0.000000 5.730043 0.104720
					CHANNELS 3 Xrotation Yrotation Zrotation
					JOINT Spine2
					{
						OFFSET 0.000000 5.730043 0.104720
						CHANNELS 3 Xrotation Yrotation Zrotation
						JOINT Neck_virtual
						{
							OFFSET 0.000000 0.000000 0.000000
							CHANNELS 3 Xrotation Yrotation Zrotation
							JOINT Neck
							{
								OFFSET 0.000000 10.314075 0.188496
								CHANNELS 3 Xrotation Yrotation Zrotation
								JOINT Head
								{
									OFFSET 0.000000 7.643700 -2.377400
									CHANNELS 3 Xrotation Yrotation Zrotation
									JOINT HeadTop_End
									{
										OFFSET 0.000000 43.788605 -13.619600
										CHANNELS 3 Xrotation Yrotation Zrotation
										End Site
										{
											OFFSET 0 0 0
										}
									}
								}
							}
						}
						JOINT LeftShoulder_virtual
						{
							OFFSET 0.000000 0.000000 0.000000
							CHANNELS 3 Xrotation Yrotation Zrotation
							JOINT LeftShoulder
							{
								OFFSET 2.196100 4.412489 0.087492
								CHANNELS 3 Xrotation Yrotation Zrotation
								JOINT LeftShoulder_split
								{
									OFFSET 2.196100 4.412489 0.087492
									CHANNELS 3 Xrotation Yrotation Zrotation
									JOINT LeftArm
									{
										OFFSET 8.771219 -2.981674 -0.026999
										CHANNELS 3 Xrotation Yrotation Zrotation
										JOINT LeftForeArm
										{
											OFFSET 8.512804 0.000000 -0.000000
											CHANNELS 3 Xrotation Yrotation Zrotation
											JOINT LeftHand
											{
												OFFSET 18.484802 0.000000 -0.000000
												CHANNELS 3 Xrotation Yrotation Zrotation
												End Site
												{
													OFFSET 0 0 0
												}
											}
										}
									}
								}
							}
						}
						JOINT RightShoulder_virtual
						{
							OFFSET 0.000000 0.000000 0.000000
							CHANNELS 3 Xrotation Yrotation Zrotation
							JOINT RightShoulder
							{
								OFFSET -2.196100 4.412496 0.070690
								CHANNELS 3 Xrotation Yrotation Zrotation
								JOINT RightShoulder_split
								{
									OFFSET -2.196100 4.412496 0.070690
									CHANNELS 3 Xrotation Yrotation Zrotation
									JOINT RightArm
									{
										OFFSET -8.771282 -2.981682 -0.094208
										CHANNELS 3 Xrotation Yrotation Zrotation
										JOINT RightForeArm
										{
											OFFSET -8.494598 0.000000 0.000000
											CHANNELS 3 Xrotation Yrotation Zrotation
											JOINT RightHand
											{
												OFFSET -18.483803 0.000000 0.000001
												CHANNELS 3 Xrotation Yrotation Zrotation
												End Site
												{
													OFFSET 0 0 0
												}
											}
										}
									}
								}
							}
						}
					}
				}
			}
		}
	}
}
MOTION
Frames: 8
Frame Time: 0.03333333
1.729942 51.131302 4.734219 0.000000 0.000000 0.000000 15.752455 -16.151249 5.484608 -78.189403 -3.579027 29.728808 68.634788 -11.483630 6.361522 15.246248 4.306546 -15.643071 -9.998549 2.459997 0.591331 0.000000 0.000000 0.000000 15.641615 -17.682151 5.489683 -114.401113 -18.989289 -6.295442 102.320790 17.904854 -1.655452 29.727138 17.573708 37.910275 1.099007 -36.590304 -39.793635 0.000000 0.000000 0.000000 18.689512 -10.521912 5.207880 23.066695 -0.339507 -10.412284 10.215533 -4.099498 0.359628 0.233283 0.543930 -0.013881 0.000000 0.000000 0.000000 13.210432 -1.524791 -0.182057 2.092129 -9.383989 -10.613826 -30.677716 37.363156 -7.924230 0.000000 0.000000 0.000000 12.169754 -3.104334 -1.581390 10.962093 0.321511 -7.406652 5.418071 -5.387132 -0.638542 -70.649134 -1.025502 9.167722 45.482790 -7.234150 22.771593 0.000000 0.000000 0.000000 16.501795 -1.613805 -0.164027 1.649811 16.364266 -3.801932 11.282344 6.249554 1.516103 -40.545803 -17.423353 -5.078276 -62.002340 47.492832 35.609171 0.000000 0.000000 0.000000 
1.732395 51.135315 4.777574 0.000000 0.000000 0.000000 15.789755 -16.041007 5.463586 -78.288803 -3.518513 29.746533 68.647943 -11.480532 6.334720 15.436998 4.293890 -15.661250 -10.032404 2.466023 0.575929 0.000000 0.000000 0.000000 15.686071 -17.496312 5.436925 -114.337599 -18.946941 -6.162829 102.371763 17.840493 -1.699725 29.658577 17.586747 37.988512 0.974571 -36.546211 -39.836477 0.000000 0.000000 0.000000 18.742553 -10.316829 5.130559 23.103747 -0.395054 -10.432724 10.266737 -4.162176 0.410182 0.229243 0.550515 -0.022639 0.000000 0.000000 0.000000 13.267774 -1.558737 -0.193135 2.075592 -9.281025 -10.677056 -31.048332 37.872911 -7.600791 0.000000 0.000000 0.000000 12.235196 -3.157328 -1.503217 11.043478 -0.086148 -6.551839 5.233914 -5.208212 -0.401171 -71.456927 -2.029943 9.402598 44.865983 -6.501894 22.250552 0.000000 0.000000 0.000000 16.548816 -1.680982 -0.131982 1.735011 16.251837 -4.282106 11.506032 6.176488 0.943233 -40.897301 -17.309547 -5.190969 -62.079938 47.696430 35.631659 0.000000 0.000000 0.000000 
1.736323 51.151833 4.833948 0.000000 0.000000 0.000000 15.811155 -15.778463 5.389428 -78.527962 -3.506744 29.769444 68.748245 -11.565297 6.285450 15.787784 4.242306 -15.601419 -10.001705 2.481254 0.537635 0.000000 0.000000 0.000000 15.716762 -17.165447 5.334927 -114.454293 -18.858415 -6.026968 102.588676 17.694035 -1.720550 29.831476 17.578354 37.913772 0.653005 -36.432021 -39.856080 0.000000 0.000000 0.000000 18.790422 -9.986774 5.034027 23.195886 -0.429096 -10.481655 10.358463 -4.282813 0.438636 0.230930 0.556639 -0.029037 0.000000 0.000000 0.000000 13.376020 -1.637364 -0.212071 2.106131 -9.070532 -10.692894 -31.504671 38.774533 -7.124539 0.000000 0.000000 0.000000 12.357933 -3.239409 -1.416622 11.175942 -0.625762 -5.209061 5.241862 -5.072475 -0.478901 -72.346593 -4.110492 9.879367 43.901283 -5.389698 21.381270 0.000000 0.000000 0.000000 16.609082 -1.802290 -0.115399 1.970209 16.081426 -5.336364 11.623241 6.171361 0.891121 -41.722053 -17.373256 -5.366260 -62.277146 47.985245 35.820230 0.000000 0.000000 0.000000 
1.743222 51.182053 4.900440 0.000000 0.000000 0.000000 15.803876 -15.421353 5.259312 -78.830587 -3.549530 29.791923 68.878851 -11.719817 6.228139 16.222097 4.172474 -15.483472 -9.910099 2.505621 0.477409 0.000000 0.000000 0.000000 15.722448 -16.781167 5.193931 -114.665175 -18.783505 -5.871991 102.879970 17.458177 -1.692319 30.184132 17.509041 37.674811 0.122894 -36.255095 -39.864782 0.000000 0.000000 0.000000 18.823554 -9.612220 4.921425 23.303523 -0.430141 -10.537165 10.475498 -4.441830 0.439615 0.231536 0.555189 -0.032465 0.000000 0.000000 0.000000 13.525681 -1.745623 -0.242825 2.189768 -8.766044 -10.651942 -31.974110 40.016419 -6.534348 0.000000 0.000000 0.000000 12.530851 -3.347009 -1.337151 11.354406 -1.245194 -3.614061 5.381589 -5.128983 -0.861026 -73.218392 -6.837080 10.368329 42.796674 -4.174046 20.382864 0.000000 0.000000 0.000000 16.694015 -1.958314 -0.128744 2.312035 15.922691 -6.789385 11.764242 6.293655 1.093557 -42.829825 -17.554735 -5.515551 -62.527513 48.277037 36.113027 0.000000 0.000000 0.000000 
1.746969 51.223602 4.973644 0.000000 0.000000 0.000000 15.751890 -15.019396 5.071404 -79.133697 -3.644832 29.811628 68.967985 -11.923018 6.166112 16.669804 4.101243 -15.319648 -9.822618 2.533695 0.408214 0.000000 0.000000 0.000000 15.688791 -16.416705 5.014974 -114.902538 -18.775587 -5.712895 103.171961 17.140020 -1.588617 30.628498 17.391624 37.332376 -0.488919 -36.055319 -39.849475 0.000000 0.000000 0.000000 18.841432 -9.234505 4.786014 23.403034 -0.389720 -10.574476 10.610468 -4.618332 0.408582 0.230904 0.532964 -0.038329 0.000000 0.000000 0.000000 13.698993 -1.874618 -0.280345 2.339144 -8.389918 -10.540097 -32.390543 41.503286 -5.893941 0.000000 0.000000 0.000000 12.742933 -3.475285 -1.272361 11.557425 -1.867529 -1.982660 5.532431 -5.287517 -1.348949 -73.999287 -9.871017 10.631446 41.728112 -3.134555 19.470060 0.000000 0.000000 0.000000 16.815280 -2.136393 -0.171216 2.710729 15.859377 -8.371054 11.801997 6.397841 1.324970 -44.077120 -17.655231 -5.641125 -62.769964 48.481028 36.440907 0.000000 0.000000 0.000000 
1.747145 51.274498 5.044073 0.000000 0.000000 0.000000 15.662822 -14.671615 4.842511 -79.380267 -3.781720 29.844915 69.023856 -12.157220 6.112628 17.112088 4.037211 -15.135423 -9.777439 2.561523 0.331920 0.000000 0.000000 0.000000 15.598310 -16.165115 4.807399 -115.070929 -18.880822 -5.550796 103.422164 16.797938 -1.426610 31.038053 17.278225 36.980529 -1.042316 -35.870378 -39.795138 0.000000 0.000000 0.000000 18.836688 -8.945453 4.630424 23.480457 -0.305581 -10.579313 10.762562 -4.798648 0.355633 0.239906 0.511767 -0.035531 0.000000 0.000000 0.000000 13.868882 -2.016203 -0.313822 2.517872 -7.964772 -10.351888 -32.697451 43.096591 -5.283451 0.000000 0.000000 0.000000 12.981628 -3.615565 -1.224520 11.752480 -2.451969 -0.557327 5.519773 -5.514746 -1.949040 -74.611381 -12.717201 10.675429 40.760076 -2.483695 18.761268 0.000000 0.000000 0.000000 16.979406 -2.327169 -0.239832 3.129579 15.958409 -9.846582 11.716328 6.362368 1.593201 -45.261338 -17.498134 -5.665245 -62.921137 48.523378 36.701940 0.000000 0.000000 0.000000 
1.746581 51.324680 5.114008 0.000000 0.000000 0.000000 15.542488 -14.449931 4.595112 -79.563193 -3.943925 29.921973 69.126214 -12.391246 6.070646 17.535566 4.003637 -14.918731 -9.761190 2.590507 0.241287 0.000000 0.000000 0.000000 15.462961 -16.033008 4.586942 -115.114724 -19.123635 -5.376870 103.629078 16.480195 -1.257136 31.274070 17.195392 36.695106 -1.545616 -35.689176 -39.748948 0.000000 0.000000 0.000000 18.805768 -8.765836 4.456998 23.541500 -0.176687 -10.551575 10.939502 -4.962669 0.298823 0.255393 0.498401 -0.031178 0.000000 0.000000 0.000000 14.006264 -2.161330 -0.333551 2.706642 -7.526846 -10.102141 -32.864671 44.714127 -4.768092 0.000000 0.000000 0.000000 13.229227 -3.763605 -1.198462 11.919819 -2.990907 0.504756 5.417904 -5.812266 -2.313346 -75.145195 -15.104712 10.478662 39.866841 -2.180942 18.254717 0.000000 0.000000 0.000000 17.184172 -2.506967 -0.312628 3.532208 16.199028 -11.029552 11.698573 6.206846 1.816351 -46.288557 -16.868703 -5.506966 -62.936382 48.388072 36.829169 0.000000 0.000000 0.000000 
1.743014 51.361412 5.174489 0.000000 0.000000 0.000000 15.377034 -14.388432 4.360097 -79.698418 -4.117356 30.060895 69.331659 -12.586597 6.044260 17.935004 4.034550 -14.656312 -9.736129 2.625792 0.119611 0.000000 0.000000 0.000000 15.302533 -16.016037 4.375919 -115.030044 -19.481072 -5.180801 103.799047 16.202493 -1.113960 31.265809 17.160707 36.506603 -1.986415 -35.506837 -39.741107 0.000000 0.000000 0.000000 18.730914 -8.708449 4.275162 23.616106 -0.022869 -10.501696 11.146566 -5.100760 0.251456 0.278289 0.483449 -0.028755 0.000000 0.000000 0.000000 14.106953 -2.293826 -0.330244 2.879602 -7.086169 -9.787495 -32.884714 46.303174 -4.407638 0.000000 0.000000 0.000000 13.472021 -3.903174 -1.184510 12.040432 -3.504468 1.107185 5.262435 -6.122408 -2.408317 -75.585155 -16.966057 10.074395 39.064669 -2.133479 17.917102 0.000000 0.000000 0.000000 17.390608 -2.662680 -0.366200 3.886600 16.582752 -11.808100 11.703047 6.085243 2.067003 -47.101548 -15.718632 -5.056384 -62.689744 48.014092 36.666890 0.000000 0.000000 0.000000 
